<svg width="1556" height="633" viewBox="0 0 1556 633" fill="none" xmlns="http://www.w3.org/2000/svg">
<path d="M54.4359 143.461L0.302055 155.259L35.6979 200.871L60.5666 151.361L54.4359 143.461ZM269 178.065L273.16 175.291L269 178.065ZM712 5.06472L712.206 0.0689573L712 5.06472ZM979 134.065L974.324 135.835L979 134.065ZM1214.5 212.565L1214.85 217.552L1214.5 212.565ZM1554.45 216.184C1556.45 214.278 1556.52 211.113 1554.62 209.115L1523.57 176.545C1521.66 174.546 1518.5 174.471 1516.5 176.376C1514.5 178.282 1514.42 181.447 1516.33 183.445L1543.93 212.396L1514.98 239.998C1512.98 241.903 1512.91 245.068 1514.81 247.067C1516.72 249.065 1519.88 249.141 1521.88 247.235L1554.45 216.184ZM45.5159 164.46C50.9549 160.98 56.7234 157.54 62.761 154.225L57.9483 145.459C51.7084 148.885 45.7476 152.44 40.1264 156.037L45.5159 164.46ZM80.6633 145.184C86.6586 142.417 92.8288 139.83 99.1268 137.49L95.6431 128.116C89.0901 130.552 82.6841 133.238 76.4731 136.104L80.6633 145.184ZM118.11 131.341C124.52 129.577 131.002 128.119 137.511 127.027L135.857 117.165C128.984 118.318 122.169 119.853 115.458 121.699L118.11 131.341ZM157.175 124.906C163.764 124.609 170.33 124.75 176.83 125.389L177.808 115.437C170.799 114.748 163.754 114.6 156.724 114.917L157.175 124.906ZM196.07 128.856C202.283 130.522 208.397 132.728 214.374 135.537L218.627 126.486C212.096 123.417 205.423 121.01 198.659 119.197L196.07 128.856ZM231.182 145.352C236.306 148.983 241.301 153.161 246.133 157.938L253.164 150.827C247.952 145.675 242.541 141.145 236.963 137.193L231.182 145.352ZM259.09 172.757C261.043 175.327 262.96 178.019 264.84 180.838L273.16 175.291C271.169 172.305 269.132 169.444 267.051 166.706L259.09 172.757ZM264.84 180.838C266.601 183.48 268.388 186.24 270.204 189.113L278.658 183.772C276.804 180.838 274.972 178.009 273.16 175.291L264.84 180.838ZM280.705 206.411C283.987 212 287.349 217.875 290.797 224.005L299.512 219.102C296.042 212.933 292.649 207.002 289.329 201.348L280.705 206.411ZM300.634 241.721C303.806 247.495 307.046 253.436 310.359 259.526L319.143 254.748C315.828 248.653 312.58 242.697 309.398 236.906L300.634 241.721ZM320.041 277.345C323.216 283.185 326.455 289.131 329.759 295.164L338.53 290.362C335.233 284.341 332 278.405 328.827 272.568L320.041 277.345ZM339.566 312.963C342.818 318.824 346.132 324.748 349.509 330.719L358.213 325.796C354.852 319.852 351.551 313.952 348.31 308.111L339.566 312.963ZM359.625 348.405C363.004 354.243 366.445 360.111 369.948 365.995L378.54 360.88C375.06 355.033 371.64 349.201 368.279 343.395L359.625 348.405ZM380.507 383.459C384.046 389.216 387.647 394.978 391.311 400.729L399.745 395.357C396.112 389.653 392.54 383.938 389.027 378.222L380.507 383.459ZM402.424 417.836C406.177 423.497 409.993 429.137 413.876 434.743L422.097 429.049C418.255 423.502 414.476 417.919 410.759 412.311L402.424 417.836ZM425.696 451.408C429.7 456.918 433.771 462.382 437.912 467.788L445.851 461.707C441.764 456.371 437.742 450.974 433.785 445.529L425.696 451.408ZM450.573 483.856C454.88 489.165 459.259 494.403 463.712 499.558L471.279 493.021C466.897 487.947 462.584 482.788 458.339 477.556L450.573 483.856ZM477.361 514.832C482.013 519.86 486.744 524.79 491.554 529.61L498.632 522.546C493.915 517.819 489.271 512.98 484.7 508.04L477.361 514.832ZM506.332 543.823C511.389 548.483 516.531 553.017 521.759 557.409L528.191 549.752C523.085 545.463 518.059 541.031 513.11 536.47L506.332 543.823ZM537.834 570.243C543.322 574.398 548.902 578.394 554.577 582.216L560.163 573.921C554.647 570.207 549.217 566.319 543.871 562.271L537.834 570.243ZM571.998 593.209C577.931 596.704 583.963 600.006 590.096 603.099L594.6 594.171C588.667 591.178 582.826 587.981 577.074 584.593L571.998 593.209ZM608.85 611.76C615.191 614.422 621.636 616.86 628.185 619.059L631.367 609.579C625.056 607.46 618.841 605.109 612.72 602.54L608.85 611.76ZM648.013 624.887C654.653 626.565 661.394 627.996 668.239 629.168L669.926 619.312C663.341 618.184 656.854 616.807 650.463 615.192L648.013 624.887ZM688.756 631.859C695.563 632.483 702.466 632.851 709.467 632.951L709.61 622.952C702.866 622.855 696.22 622.501 689.669 621.901L688.756 631.859ZM730.099 632.475C736.841 632.071 743.669 631.42 750.584 630.514L749.285 620.599C742.6 621.475 736.006 622.103 729.501 622.493L730.099 632.475ZM770.946 627.147C777.616 625.818 784.363 624.254 791.188 622.446L788.628 612.779C781.999 614.535 775.454 616.052 768.992 617.34L770.946 627.147ZM810.743 616.666C814.037 615.592 817.349 614.461 820.679 613.274L817.321 603.855C814.076 605.012 810.85 606.113 807.643 607.158L810.743 616.666ZM820.679 613.274C824.001 612.09 827.272 610.901 830.492 609.707L827.016 600.331C823.836 601.51 820.604 602.685 817.321 603.855L820.679 613.274ZM849.215 602.485C855.776 599.851 862.106 597.196 868.209 594.522L864.196 585.362C858.192 587.993 851.958 590.608 845.489 593.205L849.215 602.485ZM886.776 585.999C893.104 582.953 899.155 579.885 904.938 576.8L900.231 567.977C894.575 570.994 888.648 573.999 882.439 576.988L886.776 585.999ZM922.681 566.781C928.78 563.131 934.526 559.46 939.931 555.772L934.295 547.511C929.062 551.081 923.484 554.647 917.546 558.201L922.681 566.781ZM956.518 543.573C962.196 539.055 967.395 534.518 972.138 529.972L965.217 522.753C960.711 527.073 955.745 531.408 950.292 535.748L956.518 543.573ZM986.303 514.766C990.966 509.101 994.964 503.431 998.336 497.774L989.747 492.654C986.65 497.849 982.947 503.108 978.582 508.411L986.303 514.766ZM1007.45 478.615C1009.95 471.617 1011.54 464.688 1012.3 457.871L1002.36 456.763C1001.69 462.792 1000.28 468.963 998.031 475.249L1007.45 478.615ZM1012.01 436.495C1011.01 429.373 1009.15 422.482 1006.56 415.875L997.252 419.525C999.573 425.447 1001.22 431.577 1002.1 437.874L1012.01 436.495ZM996.821 397.06C993.018 391.209 988.655 385.67 983.858 380.484L976.517 387.275C980.958 392.076 984.966 397.169 988.436 402.509L996.821 397.06ZM968.535 366.222C963.11 361.856 957.374 357.856 951.437 354.263L946.26 362.819C951.827 366.188 957.197 369.933 962.264 374.012L968.535 366.222ZM932.925 344.652C926.434 341.808 919.831 339.442 913.24 337.605L910.556 347.239C916.675 348.943 922.834 351.148 928.912 353.811L932.925 344.652ZM892.591 333.624C889.017 333.255 885.48 333.065 882 333.065V343.065C885.117 343.065 888.311 343.235 891.563 343.571L892.591 333.624ZM882 333.065C878.651 333.065 875.196 333.176 871.648 333.384L872.232 343.366C875.612 343.169 878.871 343.065 882 343.065V333.065ZM851.202 335.416C844.715 336.28 837.997 337.347 831.107 338.555L832.833 348.405C839.625 347.214 846.203 346.17 852.523 345.328L851.202 335.416ZM811.185 342.297C804.672 343.585 798.045 344.945 791.352 346.33L793.378 356.122C800.064 354.739 806.656 353.387 813.125 352.107L811.185 342.297ZM771.616 350.411C765.059 351.755 758.472 353.084 751.885 354.358L753.784 364.176C760.421 362.892 767.048 361.556 773.625 360.207L771.616 350.411ZM732.148 357.979C725.502 359.121 718.898 360.166 712.368 361.073L713.744 370.978C720.398 370.053 727.11 368.992 733.841 367.835L732.148 357.979ZM692.592 363.382C685.831 364.004 679.206 364.422 672.759 364.588L673.017 374.585C679.716 374.412 686.563 373.979 693.508 373.34L692.592 363.382ZM653.063 364.226C646.314 363.763 639.867 362.924 633.772 361.652L631.729 371.441C638.339 372.821 645.247 373.713 652.378 374.202L653.063 364.226ZM615.49 356.014C609.573 353.477 604.177 350.324 599.357 346.473L593.115 354.287C598.706 358.753 604.892 362.351 611.55 365.205L615.49 356.014ZM586.734 332.844C583.417 327.986 580.58 322.419 578.3 316.046L568.884 319.414C571.431 326.533 574.645 332.871 578.475 338.482L586.734 332.844ZM573.654 297.409C573.163 294.295 572.77 291.041 572.482 287.643L562.518 288.487C562.825 292.112 563.246 295.604 563.776 298.968L573.654 297.409ZM572.482 287.643C572.212 284.449 571.981 281.26 571.79 278.076L561.808 278.675C562.004 281.941 562.24 285.212 562.518 288.487L572.482 287.643ZM571.108 258.928C571.035 252.499 571.12 246.104 571.355 239.754L561.362 239.384C561.121 245.893 561.034 252.45 561.109 259.041L571.108 258.928ZM572.525 220.638C573.075 214.216 573.776 207.857 574.624 201.571L564.714 200.235C563.844 206.681 563.125 213.202 562.562 219.786L572.525 220.638ZM577.651 182.667C578.83 176.316 580.159 170.06 581.63 163.914L571.904 161.587C570.394 167.901 569.029 174.324 567.819 180.841L577.651 182.667ZM586.569 145.442C588.41 139.233 590.398 133.162 592.524 127.246L583.113 123.864C580.922 129.962 578.875 136.213 576.981 142.6L586.569 145.442ZM599.523 109.476C602.083 103.527 604.787 97.7762 607.626 92.2423L598.728 87.6784C595.783 93.4199 592.983 99.3753 590.337 105.523L599.523 109.476ZM616.946 75.6334C620.345 70.0963 623.888 64.8477 627.559 59.9121L619.535 53.9441C615.677 59.1308 611.969 64.6263 608.424 70.4017L616.946 75.6334ZM639.585 45.3687C643.976 40.6152 648.502 36.2924 653.14 32.4309L646.741 24.746C641.743 28.9076 636.903 33.5349 632.239 38.5829L639.585 45.3687ZM668.284 21.7158C673.748 18.5098 679.318 15.9332 684.965 14.022L681.76 4.5497C675.417 6.69614 669.228 9.56739 663.223 13.091L668.284 21.7158ZM702.728 10.2634C705.73 10.0052 708.753 9.93528 711.794 10.0605L712.206 0.0689573C708.739 -0.073802 705.292 0.00597906 701.871 0.300118L702.728 10.2634ZM711.794 10.0605C715.034 10.1939 718.344 10.3222 721.712 10.4522L722.098 0.459676C718.729 0.329577 715.431 0.201765 712.206 0.0689573L711.794 10.0605ZM741.526 11.2632C747.973 11.5572 754.571 11.901 761.279 12.336L761.926 2.35698C755.136 1.91663 748.471 1.56949 741.981 1.27358L741.526 11.2632ZM780.948 13.8854C787.42 14.4959 793.949 15.222 800.502 16.0975L801.826 6.18564C795.129 5.29081 788.47 4.55063 781.887 3.92956L780.948 13.8854ZM819.89 19.1511C826.297 20.3254 832.69 21.6734 839.034 23.2262L841.412 13.5129C834.859 11.9092 828.274 10.5211 821.692 9.3149L819.89 19.1511ZM857.822 28.5075C864.007 30.4887 870.109 32.7022 876.098 35.1782L879.918 25.9369C873.659 23.3487 867.298 21.0424 860.873 18.9842L857.822 28.5075ZM893.657 43.4063C899.343 46.4133 904.886 49.7081 910.254 53.3199L915.836 45.023C910.16 41.2037 904.313 37.7291 898.332 34.5662L893.657 43.4063ZM925.619 64.9757C930.439 69.0932 935.073 73.5358 939.492 78.3312L946.846 71.5544C942.151 66.4599 937.23 61.7419 932.114 57.3721L925.619 64.9757ZM951.673 93.2394C955.345 98.317 958.816 103.723 962.061 109.479L970.772 104.569C967.344 98.4872 963.671 92.7645 959.776 87.3795L951.673 93.2394ZM970.664 126.816C971.935 129.744 973.156 132.749 974.324 135.835L983.676 132.295C982.453 129.062 981.172 125.909 979.836 122.833L970.664 126.816ZM974.324 135.835C975.554 139.084 976.821 142.228 978.126 145.27L987.316 141.327C986.071 138.423 984.857 135.414 983.676 132.295L974.324 135.835ZM987.062 163.528C990.555 169.785 994.249 175.495 998.13 180.696L1006.14 174.716C1002.54 169.889 999.086 164.551 995.794 158.654L987.062 163.528ZM1011.69 196.16C1016.84 201.126 1022.23 205.406 1027.82 209.075L1033.31 200.714C1028.24 197.388 1023.34 193.498 1018.63 188.96L1011.69 196.16ZM1046.16 218.735C1052.56 221.372 1059.13 223.39 1065.83 224.898L1068.02 215.142C1061.83 213.746 1055.8 211.891 1049.96 209.488L1046.16 218.735ZM1086.04 227.983C1092.73 228.57 1099.5 228.778 1106.31 228.704L1106.2 218.705C1099.66 218.775 1093.22 218.575 1086.91 218.021L1086.04 227.983ZM1126.41 227.769C1133.03 227.255 1139.68 226.564 1146.31 225.781L1145.13 215.85C1138.6 216.623 1132.09 217.298 1125.63 217.799L1126.41 227.769ZM1166.02 223.247C1172.62 222.356 1179.14 221.457 1185.62 220.623L1184.34 210.705C1177.82 211.545 1171.24 212.451 1164.69 213.337L1166.02 223.247ZM1205.13 218.374C1208.4 218.056 1211.64 217.779 1214.85 217.552L1214.15 207.577C1210.84 207.811 1207.51 208.096 1204.16 208.421L1205.13 218.374ZM1214.85 217.552C1218.04 217.328 1221.49 217.119 1225.18 216.926L1224.66 206.94C1220.92 207.135 1217.4 207.347 1214.15 207.577L1214.85 217.552ZM1246.15 216.072C1252.72 215.864 1259.73 215.687 1267.1 215.54L1266.9 205.542C1259.5 205.69 1252.45 205.867 1245.83 206.077L1246.15 216.072ZM1288.1 215.206C1294.91 215.123 1301.93 215.059 1309.12 215.012L1309.05 205.012C1301.85 205.059 1294.81 205.123 1287.98 205.207L1288.1 215.206ZM1330.15 214.925C1337.06 214.911 1344.08 214.911 1351.17 214.923L1351.18 204.923C1344.09 204.911 1337.05 204.911 1330.13 204.925L1330.15 214.925ZM1372.19 214.991C1379.18 215.025 1386.2 215.068 1393.22 215.12L1393.29 205.12C1386.27 205.068 1379.24 205.025 1372.23 204.991L1372.19 214.991ZM1414.24 215.302C1421.3 215.371 1428.32 215.448 1435.27 215.532L1435.39 205.532C1428.44 205.449 1421.41 205.372 1414.34 205.302L1414.24 215.302ZM1456.31 215.805C1463.46 215.906 1470.48 216.011 1477.35 216.121L1477.51 206.122C1470.64 206.013 1463.61 205.907 1456.45 205.806L1456.31 215.805ZM1498.38 216.478C1505.67 216.609 1512.7 216.742 1519.41 216.877L1519.61 206.879C1512.89 206.744 1505.86 206.61 1498.55 206.479L1498.38 216.478ZM1540.43 217.322C1544.06 217.403 1547.55 217.484 1550.88 217.563L1551.12 207.566C1547.78 207.487 1544.29 207.406 1540.65 207.324L1540.43 217.322Z" fill="#390523"/>
</svg>
